<svg width="24" height="24" viewBox="0 0 24 24" fill="none" xmlns="http://www.w3.org/2000/svg">
<path d="M12 1C5.925 1 1 5.925 1 12C1 18.075 5.925 23 12 23C18.075 23 23 18.075 23 12C23 5.925 18.075 1 12 1ZM17.3 16.3C16.8 16.8 16.1 17.1 15.3 17.1C14.5 17.1 13.8 16.8 13.3 16.3L12 15L10.7 16.3C10.2 16.8 9.5 17.1 8.7 17.1C7.9 17.1 7.2 16.8 6.7 16.3C6.2 15.8 5.9 15.1 5.9 14.3C5.9 13.5 6.2 12.8 6.7 12.3L10.7 8.3C11.2 7.8 11.9 7.5 12.7 7.5C13.5 7.5 14.2 7.8 14.7 8.3L18.7 12.3C19.2 12.8 19.5 13.5 19.5 14.3C19.5 15.1 19.2 15.8 18.7 16.3L17.3 16.3Z" fill="#218BCF"/>
<path d="M9 10C9 9.44772 9.44772 9 10 9C10.5523 9 11 9.44772 11 10C11 10.5523 10.5523 11 10 11C9.44772 11 9 10.5523 9 10Z" fill="#FFFFFF"/>
<path d="M14 10C14 9.44772 14.4477 9 15 9C15.5523 9 16 9.44772 16 10C16 10.5523 15.5523 11 15 11C14.4477 11 14 10.5523 14 10Z" fill="#FFFFFF"/>
<path d="M12 13C11.4477 13 11 13.4477 11 14C11 14.5523 11.4477 15 12 15C12.5523 15 13 14.5523 13 14C13 13.4477 12.5523 13 12 13Z" fill="#FFFFFF"/>
</svg>